<mxfile host="app.diagrams.net" modified="2024-01-29T13:13:57.998Z" agent="Mozilla/5.0 (Windows NT 10.0; Win64; x64) AppleWebKit/537.36 (KHTML, like Gecko) Chrome/120.0.0.0 Safari/537.36 Edg/120.0.0.0" etag="eBTudzJ4lXzF4heHlvFr" version="23.0.2" type="device">
  <diagram name="Pagina-1" id="fQ11FkxAPbvqYKmtSipG">
    <mxGraphModel dx="1042" dy="569" grid="1" gridSize="10" guides="1" tooltips="1" connect="1" arrows="1" fold="1" page="1" pageScale="1" pageWidth="827" pageHeight="1169" math="0" shadow="0">
      <root>
        <mxCell id="0" />
        <mxCell id="1" parent="0" />
        <mxCell id="WNB-Z4tBWGZf17d2bO29-111" value="" style="edgeStyle=orthogonalEdgeStyle;rounded=0;orthogonalLoop=1;jettySize=auto;html=1;entryX=0.5;entryY=0;entryDx=0;entryDy=0;" edge="1" parent="1" source="WNB-Z4tBWGZf17d2bO29-22" target="WNB-Z4tBWGZf17d2bO29-26">
          <mxGeometry relative="1" as="geometry" />
        </mxCell>
        <mxCell id="WNB-Z4tBWGZf17d2bO29-22" value="Allergeen" style="swimlane;fontStyle=0;childLayout=stackLayout;horizontal=1;startSize=26;fillColor=none;horizontalStack=0;resizeParent=1;resizeParentMax=0;resizeLast=0;collapsible=1;marginBottom=0;whiteSpace=wrap;html=1;" vertex="1" parent="1">
          <mxGeometry x="490" y="40" width="230" height="104" as="geometry" />
        </mxCell>
        <mxCell id="WNB-Z4tBWGZf17d2bO29-23" value="# column: Naam" style="text;strokeColor=none;fillColor=none;align=left;verticalAlign=top;spacingLeft=4;spacingRight=4;overflow=hidden;rotatable=0;points=[[0,0.5],[1,0.5]];portConstraint=eastwest;whiteSpace=wrap;html=1;" vertex="1" parent="WNB-Z4tBWGZf17d2bO29-22">
          <mxGeometry y="26" width="230" height="26" as="geometry" />
        </mxCell>
        <mxCell id="WNB-Z4tBWGZf17d2bO29-24" value="# column: Omschrijving" style="text;strokeColor=none;fillColor=none;align=left;verticalAlign=top;spacingLeft=4;spacingRight=4;overflow=hidden;rotatable=0;points=[[0,0.5],[1,0.5]];portConstraint=eastwest;whiteSpace=wrap;html=1;" vertex="1" parent="WNB-Z4tBWGZf17d2bO29-22">
          <mxGeometry y="52" width="230" height="26" as="geometry" />
        </mxCell>
        <mxCell id="WNB-Z4tBWGZf17d2bO29-25" value="- productPerAllergeens(): HasMany" style="text;strokeColor=none;fillColor=none;align=left;verticalAlign=top;spacingLeft=4;spacingRight=4;overflow=hidden;rotatable=0;points=[[0,0.5],[1,0.5]];portConstraint=eastwest;whiteSpace=wrap;html=1;" vertex="1" parent="WNB-Z4tBWGZf17d2bO29-22">
          <mxGeometry y="78" width="230" height="26" as="geometry" />
        </mxCell>
        <mxCell id="WNB-Z4tBWGZf17d2bO29-128" value="" style="endArrow=none;html=1;rounded=0;entryX=0.995;entryY=0;entryDx=0;entryDy=0;entryPerimeter=0;exitX=0.003;exitY=0;exitDx=0;exitDy=0;exitPerimeter=0;" edge="1" parent="WNB-Z4tBWGZf17d2bO29-22" source="WNB-Z4tBWGZf17d2bO29-25" target="WNB-Z4tBWGZf17d2bO29-25">
          <mxGeometry width="50" height="50" relative="1" as="geometry">
            <mxPoint x="-100" y="180" as="sourcePoint" />
            <mxPoint x="-50" y="130" as="targetPoint" />
          </mxGeometry>
        </mxCell>
        <mxCell id="WNB-Z4tBWGZf17d2bO29-112" style="edgeStyle=orthogonalEdgeStyle;rounded=0;orthogonalLoop=1;jettySize=auto;html=1;entryX=0.5;entryY=0;entryDx=0;entryDy=0;" edge="1" parent="1" source="WNB-Z4tBWGZf17d2bO29-26" target="WNB-Z4tBWGZf17d2bO29-31">
          <mxGeometry relative="1" as="geometry" />
        </mxCell>
        <mxCell id="WNB-Z4tBWGZf17d2bO29-26" value="Leverancier" style="swimlane;fontStyle=0;childLayout=stackLayout;horizontal=1;startSize=26;fillColor=none;horizontalStack=0;resizeParent=1;resizeParentMax=0;resizeLast=0;collapsible=1;marginBottom=0;whiteSpace=wrap;html=1;" vertex="1" parent="1">
          <mxGeometry x="490" y="190" width="230" height="158" as="geometry">
            <mxRectangle x="490" y="200" width="100" height="30" as="alternateBounds" />
          </mxGeometry>
        </mxCell>
        <mxCell id="WNB-Z4tBWGZf17d2bO29-27" value="# column: Naam" style="text;strokeColor=none;fillColor=none;align=left;verticalAlign=top;spacingLeft=4;spacingRight=4;overflow=hidden;rotatable=0;points=[[0,0.5],[1,0.5]];portConstraint=eastwest;whiteSpace=wrap;html=1;" vertex="1" parent="WNB-Z4tBWGZf17d2bO29-26">
          <mxGeometry y="26" width="230" height="26" as="geometry" />
        </mxCell>
        <mxCell id="WNB-Z4tBWGZf17d2bO29-28" value="# column:&amp;nbsp;ContactPersoon" style="text;strokeColor=none;fillColor=none;align=left;verticalAlign=top;spacingLeft=4;spacingRight=4;overflow=hidden;rotatable=0;points=[[0,0.5],[1,0.5]];portConstraint=eastwest;whiteSpace=wrap;html=1;" vertex="1" parent="WNB-Z4tBWGZf17d2bO29-26">
          <mxGeometry y="52" width="230" height="28" as="geometry" />
        </mxCell>
        <mxCell id="WNB-Z4tBWGZf17d2bO29-69" value="# column:&amp;nbsp;LeverancierNummer" style="text;strokeColor=none;fillColor=none;align=left;verticalAlign=top;spacingLeft=4;spacingRight=4;overflow=hidden;rotatable=0;points=[[0,0.5],[1,0.5]];portConstraint=eastwest;whiteSpace=wrap;html=1;" vertex="1" parent="WNB-Z4tBWGZf17d2bO29-26">
          <mxGeometry y="80" width="230" height="26" as="geometry" />
        </mxCell>
        <mxCell id="WNB-Z4tBWGZf17d2bO29-70" value="# column:&amp;nbsp;Mobiel" style="text;strokeColor=none;fillColor=none;align=left;verticalAlign=top;spacingLeft=4;spacingRight=4;overflow=hidden;rotatable=0;points=[[0,0.5],[1,0.5]];portConstraint=eastwest;whiteSpace=wrap;html=1;" vertex="1" parent="WNB-Z4tBWGZf17d2bO29-26">
          <mxGeometry y="106" width="230" height="26" as="geometry" />
        </mxCell>
        <mxCell id="WNB-Z4tBWGZf17d2bO29-29" value="- productPerLeveranciers(): HasMany" style="text;strokeColor=none;fillColor=none;align=left;verticalAlign=top;spacingLeft=4;spacingRight=4;overflow=hidden;rotatable=0;points=[[0,0.5],[1,0.5]];portConstraint=eastwest;whiteSpace=wrap;html=1;" vertex="1" parent="WNB-Z4tBWGZf17d2bO29-26">
          <mxGeometry y="132" width="230" height="26" as="geometry" />
        </mxCell>
        <mxCell id="WNB-Z4tBWGZf17d2bO29-127" value="" style="endArrow=none;html=1;rounded=0;entryX=1.002;entryY=0;entryDx=0;entryDy=0;entryPerimeter=0;exitX=0;exitY=0;exitDx=0;exitDy=0;exitPerimeter=0;" edge="1" parent="WNB-Z4tBWGZf17d2bO29-26" source="WNB-Z4tBWGZf17d2bO29-29" target="WNB-Z4tBWGZf17d2bO29-29">
          <mxGeometry width="50" height="50" relative="1" as="geometry">
            <mxPoint x="-100" y="210" as="sourcePoint" />
            <mxPoint x="-50" y="160" as="targetPoint" />
          </mxGeometry>
        </mxCell>
        <mxCell id="WNB-Z4tBWGZf17d2bO29-113" style="edgeStyle=orthogonalEdgeStyle;rounded=0;orthogonalLoop=1;jettySize=auto;html=1;entryX=0.5;entryY=0;entryDx=0;entryDy=0;" edge="1" parent="1" source="WNB-Z4tBWGZf17d2bO29-31" target="WNB-Z4tBWGZf17d2bO29-53">
          <mxGeometry relative="1" as="geometry" />
        </mxCell>
        <mxCell id="WNB-Z4tBWGZf17d2bO29-31" value="Magazijn" style="swimlane;fontStyle=0;childLayout=stackLayout;horizontal=1;startSize=26;fillColor=none;horizontalStack=0;resizeParent=1;resizeParentMax=0;resizeLast=0;collapsible=1;marginBottom=0;whiteSpace=wrap;html=1;" vertex="1" parent="1">
          <mxGeometry x="500" y="420" width="230" height="130" as="geometry" />
        </mxCell>
        <mxCell id="WNB-Z4tBWGZf17d2bO29-32" value="# column:&amp;nbsp;Product_id" style="text;strokeColor=none;fillColor=none;align=left;verticalAlign=top;spacingLeft=4;spacingRight=4;overflow=hidden;rotatable=0;points=[[0,0.5],[1,0.5]];portConstraint=eastwest;whiteSpace=wrap;html=1;" vertex="1" parent="WNB-Z4tBWGZf17d2bO29-31">
          <mxGeometry y="26" width="230" height="26" as="geometry" />
        </mxCell>
        <mxCell id="WNB-Z4tBWGZf17d2bO29-71" value="# column:&amp;nbsp;VerpakkingsEenheid" style="text;strokeColor=none;fillColor=none;align=left;verticalAlign=top;spacingLeft=4;spacingRight=4;overflow=hidden;rotatable=0;points=[[0,0.5],[1,0.5]];portConstraint=eastwest;whiteSpace=wrap;html=1;" vertex="1" parent="WNB-Z4tBWGZf17d2bO29-31">
          <mxGeometry y="52" width="230" height="26" as="geometry" />
        </mxCell>
        <mxCell id="WNB-Z4tBWGZf17d2bO29-72" value="# column:&amp;nbsp;AantalAanwezig" style="text;strokeColor=none;fillColor=none;align=left;verticalAlign=top;spacingLeft=4;spacingRight=4;overflow=hidden;rotatable=0;points=[[0,0.5],[1,0.5]];portConstraint=eastwest;whiteSpace=wrap;html=1;" vertex="1" parent="WNB-Z4tBWGZf17d2bO29-31">
          <mxGeometry y="78" width="230" height="26" as="geometry" />
        </mxCell>
        <mxCell id="WNB-Z4tBWGZf17d2bO29-82" value="- product():&amp;nbsp;BelongsTo" style="text;strokeColor=none;fillColor=none;align=left;verticalAlign=top;spacingLeft=4;spacingRight=4;overflow=hidden;rotatable=0;points=[[0,0.5],[1,0.5]];portConstraint=eastwest;whiteSpace=wrap;html=1;" vertex="1" parent="WNB-Z4tBWGZf17d2bO29-31">
          <mxGeometry y="104" width="230" height="26" as="geometry" />
        </mxCell>
        <mxCell id="WNB-Z4tBWGZf17d2bO29-126" value="" style="endArrow=none;html=1;rounded=0;entryX=0.995;entryY=0;entryDx=0;entryDy=0;entryPerimeter=0;exitX=0.003;exitY=0;exitDx=0;exitDy=0;exitPerimeter=0;" edge="1" parent="WNB-Z4tBWGZf17d2bO29-31" source="WNB-Z4tBWGZf17d2bO29-82" target="WNB-Z4tBWGZf17d2bO29-82">
          <mxGeometry width="50" height="50" relative="1" as="geometry">
            <mxPoint x="-100" y="70" as="sourcePoint" />
            <mxPoint x="-50" y="20" as="targetPoint" />
          </mxGeometry>
        </mxCell>
        <mxCell id="WNB-Z4tBWGZf17d2bO29-36" value="View" style="swimlane;fontStyle=0;childLayout=stackLayout;horizontal=1;startSize=26;fillColor=none;horizontalStack=0;resizeParent=1;resizeParentMax=0;resizeLast=0;collapsible=1;marginBottom=0;whiteSpace=wrap;html=1;" vertex="1" parent="1">
          <mxGeometry x="150" y="40" width="230" height="78" as="geometry" />
        </mxCell>
        <mxCell id="WNB-Z4tBWGZf17d2bO29-37" value="+ table: text" style="text;strokeColor=none;fillColor=none;align=left;verticalAlign=top;spacingLeft=4;spacingRight=4;overflow=hidden;rotatable=0;points=[[0,0.5],[1,0.5]];portConstraint=eastwest;whiteSpace=wrap;html=1;" vertex="1" parent="WNB-Z4tBWGZf17d2bO29-36">
          <mxGeometry y="26" width="230" height="26" as="geometry" />
        </mxCell>
        <mxCell id="WNB-Z4tBWGZf17d2bO29-132" value="+ a: link" style="text;strokeColor=none;fillColor=none;align=left;verticalAlign=top;spacingLeft=4;spacingRight=4;overflow=hidden;rotatable=0;points=[[0,0.5],[1,0.5]];portConstraint=eastwest;whiteSpace=wrap;html=1;" vertex="1" parent="WNB-Z4tBWGZf17d2bO29-36">
          <mxGeometry y="52" width="230" height="26" as="geometry" />
        </mxCell>
        <mxCell id="WNB-Z4tBWGZf17d2bO29-114" style="edgeStyle=orthogonalEdgeStyle;rounded=0;orthogonalLoop=1;jettySize=auto;html=1;entryX=1;entryY=0.25;entryDx=0;entryDy=0;" edge="1" parent="1" source="WNB-Z4tBWGZf17d2bO29-53" target="WNB-Z4tBWGZf17d2bO29-58">
          <mxGeometry relative="1" as="geometry" />
        </mxCell>
        <mxCell id="WNB-Z4tBWGZf17d2bO29-53" value="Product" style="swimlane;fontStyle=0;childLayout=stackLayout;horizontal=1;startSize=26;fillColor=none;horizontalStack=0;resizeParent=1;resizeParentMax=0;resizeLast=0;collapsible=1;marginBottom=0;whiteSpace=wrap;html=1;" vertex="1" parent="1">
          <mxGeometry x="550" y="630" width="230" height="156" as="geometry" />
        </mxCell>
        <mxCell id="WNB-Z4tBWGZf17d2bO29-54" value="# column:&amp;nbsp;Naam" style="text;strokeColor=none;fillColor=none;align=left;verticalAlign=top;spacingLeft=4;spacingRight=4;overflow=hidden;rotatable=0;points=[[0,0.5],[1,0.5]];portConstraint=eastwest;whiteSpace=wrap;html=1;" vertex="1" parent="WNB-Z4tBWGZf17d2bO29-53">
          <mxGeometry y="26" width="230" height="26" as="geometry" />
        </mxCell>
        <mxCell id="WNB-Z4tBWGZf17d2bO29-73" value="# column:&amp;nbsp;Barcode" style="text;strokeColor=none;fillColor=none;align=left;verticalAlign=top;spacingLeft=4;spacingRight=4;overflow=hidden;rotatable=0;points=[[0,0.5],[1,0.5]];portConstraint=eastwest;whiteSpace=wrap;html=1;" vertex="1" parent="WNB-Z4tBWGZf17d2bO29-53">
          <mxGeometry y="52" width="230" height="26" as="geometry" />
        </mxCell>
        <mxCell id="WNB-Z4tBWGZf17d2bO29-83" value="- productPerLeveranciers():&amp;nbsp;HasMany" style="text;strokeColor=none;fillColor=none;align=left;verticalAlign=top;spacingLeft=4;spacingRight=4;overflow=hidden;rotatable=0;points=[[0,0.5],[1,0.5]];portConstraint=eastwest;whiteSpace=wrap;html=1;" vertex="1" parent="WNB-Z4tBWGZf17d2bO29-53">
          <mxGeometry y="78" width="230" height="26" as="geometry" />
        </mxCell>
        <mxCell id="WNB-Z4tBWGZf17d2bO29-84" value="- productPerAllergeens():&amp;nbsp;HasMany" style="text;strokeColor=none;fillColor=none;align=left;verticalAlign=top;spacingLeft=4;spacingRight=4;overflow=hidden;rotatable=0;points=[[0,0.5],[1,0.5]];portConstraint=eastwest;whiteSpace=wrap;html=1;" vertex="1" parent="WNB-Z4tBWGZf17d2bO29-53">
          <mxGeometry y="104" width="230" height="26" as="geometry" />
        </mxCell>
        <mxCell id="WNB-Z4tBWGZf17d2bO29-85" value="- magazijns():&amp;nbsp;HasMany" style="text;strokeColor=none;fillColor=none;align=left;verticalAlign=top;spacingLeft=4;spacingRight=4;overflow=hidden;rotatable=0;points=[[0,0.5],[1,0.5]];portConstraint=eastwest;whiteSpace=wrap;html=1;" vertex="1" parent="WNB-Z4tBWGZf17d2bO29-53">
          <mxGeometry y="130" width="230" height="26" as="geometry" />
        </mxCell>
        <mxCell id="WNB-Z4tBWGZf17d2bO29-125" value="" style="endArrow=none;html=1;rounded=0;entryX=0.998;entryY=0.031;entryDx=0;entryDy=0;entryPerimeter=0;exitX=-0.003;exitY=1.062;exitDx=0;exitDy=0;exitPerimeter=0;" edge="1" parent="WNB-Z4tBWGZf17d2bO29-53" source="WNB-Z4tBWGZf17d2bO29-73" target="WNB-Z4tBWGZf17d2bO29-83">
          <mxGeometry width="50" height="50" relative="1" as="geometry">
            <mxPoint x="-30" y="50" as="sourcePoint" />
            <mxPoint x="-60" y="120" as="targetPoint" />
          </mxGeometry>
        </mxCell>
        <mxCell id="WNB-Z4tBWGZf17d2bO29-115" style="edgeStyle=orthogonalEdgeStyle;rounded=0;orthogonalLoop=1;jettySize=auto;html=1;entryX=1;entryY=0.5;entryDx=0;entryDy=0;" edge="1" parent="1" source="WNB-Z4tBWGZf17d2bO29-58" target="WNB-Z4tBWGZf17d2bO29-87">
          <mxGeometry relative="1" as="geometry" />
        </mxCell>
        <mxCell id="WNB-Z4tBWGZf17d2bO29-58" value="ProductPerAllergeen" style="swimlane;fontStyle=0;childLayout=stackLayout;horizontal=1;startSize=26;fillColor=none;horizontalStack=0;resizeParent=1;resizeParentMax=0;resizeLast=0;collapsible=1;marginBottom=0;whiteSpace=wrap;html=1;" vertex="1" parent="1">
          <mxGeometry x="280" y="580" width="230" height="78" as="geometry" />
        </mxCell>
        <mxCell id="WNB-Z4tBWGZf17d2bO29-86" value="- product():&amp;nbsp;BelongsTo" style="text;strokeColor=none;fillColor=none;align=left;verticalAlign=top;spacingLeft=4;spacingRight=4;overflow=hidden;rotatable=0;points=[[0,0.5],[1,0.5]];portConstraint=eastwest;whiteSpace=wrap;html=1;" vertex="1" parent="WNB-Z4tBWGZf17d2bO29-58">
          <mxGeometry y="26" width="230" height="26" as="geometry" />
        </mxCell>
        <mxCell id="WNB-Z4tBWGZf17d2bO29-88" value="- allergeen():&amp;nbsp;BelongsTo" style="text;strokeColor=none;fillColor=none;align=left;verticalAlign=top;spacingLeft=4;spacingRight=4;overflow=hidden;rotatable=0;points=[[0,0.5],[1,0.5]];portConstraint=eastwest;whiteSpace=wrap;html=1;" vertex="1" parent="WNB-Z4tBWGZf17d2bO29-58">
          <mxGeometry y="52" width="230" height="26" as="geometry" />
        </mxCell>
        <mxCell id="WNB-Z4tBWGZf17d2bO29-118" style="edgeStyle=orthogonalEdgeStyle;rounded=0;orthogonalLoop=1;jettySize=auto;html=1;entryX=1;entryY=0.25;entryDx=0;entryDy=0;" edge="1" parent="1" source="WNB-Z4tBWGZf17d2bO29-62" target="WNB-Z4tBWGZf17d2bO29-93">
          <mxGeometry relative="1" as="geometry" />
        </mxCell>
        <mxCell id="WNB-Z4tBWGZf17d2bO29-62" value="ProductPerLeverancier" style="swimlane;fontStyle=0;childLayout=stackLayout;horizontal=1;startSize=26;fillColor=none;horizontalStack=0;resizeParent=1;resizeParentMax=0;resizeLast=0;collapsible=1;marginBottom=0;whiteSpace=wrap;html=1;" vertex="1" parent="1">
          <mxGeometry x="30" y="490" width="230" height="156" as="geometry">
            <mxRectangle x="560" y="840" width="160" height="30" as="alternateBounds" />
          </mxGeometry>
        </mxCell>
        <mxCell id="WNB-Z4tBWGZf17d2bO29-87" value="# column:&amp;nbsp;DatumLevering" style="text;strokeColor=none;fillColor=none;align=left;verticalAlign=top;spacingLeft=4;spacingRight=4;overflow=hidden;rotatable=0;points=[[0,0.5],[1,0.5]];portConstraint=eastwest;whiteSpace=wrap;html=1;" vertex="1" parent="WNB-Z4tBWGZf17d2bO29-62">
          <mxGeometry y="26" width="230" height="26" as="geometry" />
        </mxCell>
        <mxCell id="WNB-Z4tBWGZf17d2bO29-89" value="# column:&amp;nbsp;Aantal" style="text;strokeColor=none;fillColor=none;align=left;verticalAlign=top;spacingLeft=4;spacingRight=4;overflow=hidden;rotatable=0;points=[[0,0.5],[1,0.5]];portConstraint=eastwest;whiteSpace=wrap;html=1;" vertex="1" parent="WNB-Z4tBWGZf17d2bO29-62">
          <mxGeometry y="52" width="230" height="26" as="geometry" />
        </mxCell>
        <mxCell id="WNB-Z4tBWGZf17d2bO29-92" value="# column:&amp;nbsp;DatumEerstVolgendeLevering" style="text;strokeColor=none;fillColor=none;align=left;verticalAlign=top;spacingLeft=4;spacingRight=4;overflow=hidden;rotatable=0;points=[[0,0.5],[1,0.5]];portConstraint=eastwest;whiteSpace=wrap;html=1;glass=1;" vertex="1" parent="WNB-Z4tBWGZf17d2bO29-62">
          <mxGeometry y="78" width="230" height="26" as="geometry" />
        </mxCell>
        <mxCell id="WNB-Z4tBWGZf17d2bO29-91" value="- leverancier():&amp;nbsp;BelongsTo" style="text;strokeColor=none;fillColor=none;align=left;verticalAlign=top;spacingLeft=4;spacingRight=4;overflow=hidden;rotatable=0;points=[[0,0.5],[1,0.5]];portConstraint=eastwest;whiteSpace=wrap;html=1;" vertex="1" parent="WNB-Z4tBWGZf17d2bO29-62">
          <mxGeometry y="104" width="230" height="26" as="geometry" />
        </mxCell>
        <mxCell id="WNB-Z4tBWGZf17d2bO29-90" value="- product():&amp;nbsp;BelongsTo" style="text;strokeColor=none;fillColor=none;align=left;verticalAlign=top;spacingLeft=4;spacingRight=4;overflow=hidden;rotatable=0;points=[[0,0.5],[1,0.5]];portConstraint=eastwest;whiteSpace=wrap;html=1;" vertex="1" parent="WNB-Z4tBWGZf17d2bO29-62">
          <mxGeometry y="130" width="230" height="26" as="geometry" />
        </mxCell>
        <mxCell id="WNB-Z4tBWGZf17d2bO29-124" value="" style="endArrow=none;html=1;rounded=0;exitX=-0.003;exitY=0.046;exitDx=0;exitDy=0;exitPerimeter=0;entryX=1.005;entryY=0.108;entryDx=0;entryDy=0;entryPerimeter=0;" edge="1" parent="WNB-Z4tBWGZf17d2bO29-62" source="WNB-Z4tBWGZf17d2bO29-91" target="WNB-Z4tBWGZf17d2bO29-91">
          <mxGeometry width="50" height="50" relative="1" as="geometry">
            <mxPoint x="-100" y="-30" as="sourcePoint" />
            <mxPoint x="250" y="80" as="targetPoint" />
          </mxGeometry>
        </mxCell>
        <mxCell id="WNB-Z4tBWGZf17d2bO29-123" value="" style="edgeStyle=orthogonalEdgeStyle;rounded=0;orthogonalLoop=1;jettySize=auto;html=1;" edge="1" parent="1" source="WNB-Z4tBWGZf17d2bO29-93" target="WNB-Z4tBWGZf17d2bO29-119">
          <mxGeometry relative="1" as="geometry" />
        </mxCell>
        <mxCell id="WNB-Z4tBWGZf17d2bO29-93" value="GegevensController" style="swimlane;fontStyle=0;childLayout=stackLayout;horizontal=1;startSize=26;fillColor=none;horizontalStack=0;resizeParent=1;resizeParentMax=0;resizeLast=0;collapsible=1;marginBottom=0;whiteSpace=wrap;html=1;" vertex="1" parent="1">
          <mxGeometry x="150" y="340" width="230" height="104" as="geometry" />
        </mxCell>
        <mxCell id="WNB-Z4tBWGZf17d2bO29-94" value="- index()" style="text;strokeColor=none;fillColor=none;align=left;verticalAlign=top;spacingLeft=4;spacingRight=4;overflow=hidden;rotatable=0;points=[[0,0.5],[1,0.5]];portConstraint=eastwest;whiteSpace=wrap;html=1;" vertex="1" parent="WNB-Z4tBWGZf17d2bO29-93">
          <mxGeometry y="26" width="230" height="26" as="geometry" />
        </mxCell>
        <mxCell id="WNB-Z4tBWGZf17d2bO29-95" value="- LeverancierIndex&lt;span style=&quot;background-color: initial;&quot;&gt;(Product $data)&lt;/span&gt;" style="text;strokeColor=none;fillColor=none;align=left;verticalAlign=top;spacingLeft=4;spacingRight=4;overflow=hidden;rotatable=0;points=[[0,0.5],[1,0.5]];portConstraint=eastwest;whiteSpace=wrap;html=1;" vertex="1" parent="WNB-Z4tBWGZf17d2bO29-93">
          <mxGeometry y="52" width="230" height="26" as="geometry" />
        </mxCell>
        <mxCell id="WNB-Z4tBWGZf17d2bO29-96" value="- AllergeenIndex&lt;span style=&quot;background-color: initial;&quot;&gt;(Product $data)&lt;/span&gt;" style="text;strokeColor=none;fillColor=none;align=left;verticalAlign=top;spacingLeft=4;spacingRight=4;overflow=hidden;rotatable=0;points=[[0,0.5],[1,0.5]];portConstraint=eastwest;whiteSpace=wrap;html=1;" vertex="1" parent="WNB-Z4tBWGZf17d2bO29-93">
          <mxGeometry y="78" width="230" height="26" as="geometry" />
        </mxCell>
        <mxCell id="WNB-Z4tBWGZf17d2bO29-119" value="DataBase" style="swimlane;fontStyle=0;childLayout=stackLayout;horizontal=1;startSize=26;fillColor=none;horizontalStack=0;resizeParent=1;resizeParentMax=0;resizeLast=0;collapsible=1;marginBottom=0;whiteSpace=wrap;html=1;" vertex="1" parent="1">
          <mxGeometry x="150" y="200" width="230" height="78" as="geometry" />
        </mxCell>
        <mxCell id="WNB-Z4tBWGZf17d2bO29-134" value="- up()" style="text;strokeColor=none;fillColor=none;align=left;verticalAlign=top;spacingLeft=4;spacingRight=4;overflow=hidden;rotatable=0;points=[[0,0.5],[1,0.5]];portConstraint=eastwest;whiteSpace=wrap;html=1;" vertex="1" parent="WNB-Z4tBWGZf17d2bO29-119">
          <mxGeometry y="26" width="230" height="26" as="geometry" />
        </mxCell>
        <mxCell id="WNB-Z4tBWGZf17d2bO29-135" value="- down()" style="text;strokeColor=none;fillColor=none;align=left;verticalAlign=top;spacingLeft=4;spacingRight=4;overflow=hidden;rotatable=0;points=[[0,0.5],[1,0.5]];portConstraint=eastwest;whiteSpace=wrap;html=1;" vertex="1" parent="WNB-Z4tBWGZf17d2bO29-119">
          <mxGeometry y="52" width="230" height="26" as="geometry" />
        </mxCell>
        <mxCell id="WNB-Z4tBWGZf17d2bO29-130" style="edgeStyle=orthogonalEdgeStyle;rounded=0;orthogonalLoop=1;jettySize=auto;html=1;entryX=1;entryY=0.5;entryDx=0;entryDy=0;" edge="1" parent="1" source="WNB-Z4tBWGZf17d2bO29-119" target="WNB-Z4tBWGZf17d2bO29-37">
          <mxGeometry relative="1" as="geometry">
            <mxPoint x="380" y="105" as="targetPoint" />
          </mxGeometry>
        </mxCell>
      </root>
    </mxGraphModel>
  </diagram>
</mxfile>
